<svg xmlns="http://www.w3.org/2000/svg" xmlns:xlink="http://www.w3.org/1999/xlink" width="500" zoomAndPan="magnify" viewBox="0 0 375 374.999991" height="500" preserveAspectRatio="xMidYMid meet" version="1.0"><defs><g/><clipPath id="0018eec25f"><rect x="0" width="337" y="0" height="241"/></clipPath><clipPath id="a0b77d05f9"><path d="M 184.4375 117.097656 L 279.6875 117.097656 L 279.6875 255 L 184.4375 255 Z M 184.4375 117.097656 " clip-rule="nonzero"/></clipPath><clipPath id="8f7ed0b867"><path d="M 66.226562 175.667969 L 112.726562 175.667969 L 112.726562 219.917969 L 66.226562 219.917969 Z M 66.226562 175.667969 " clip-rule="nonzero"/></clipPath></defs><rect x="-37.5" width="450" fill="#ffffff" y="-37.499999" height="449.999989" fill-opacity="1"/><rect x="-37.5" width="450" fill="#fff9f3" y="-37.499999" height="449.999989" fill-opacity="1"/><g transform="matrix(1, 0, 0, 1, 17, 134)"><g clip-path="url(#0018eec25f)"><g fill="#012c18" fill-opacity="1"><g transform="translate(1.537498, 83.411135)"><g/></g></g><g fill="#012c18" fill-opacity="1"><g transform="translate(19.009958, 83.411135)"><g><path d="M 5.578125 -76.640625 L 32.96875 -76.640625 C 40.34375 -76.640625 46.351562 -74.671875 51 -70.734375 C 55.644531 -66.804688 57.96875 -61.1875 57.96875 -53.875 C 57.96875 -48.238281 56.554688 -43.515625 53.734375 -39.703125 C 50.921875 -35.898438 47.097656 -33.222656 42.265625 -31.671875 L 68.640625 0 L 46.453125 0 L 23.03125 -30.28125 L 23.03125 0 L 5.578125 0 Z M 23.03125 -42.640625 L 25.078125 -42.640625 C 26.691406 -42.640625 28.054688 -42.671875 29.171875 -42.734375 C 30.285156 -42.796875 31.550781 -43.007812 32.96875 -43.375 C 34.394531 -43.75 35.539062 -44.273438 36.40625 -44.953125 C 37.28125 -45.640625 38.023438 -46.628906 38.640625 -47.921875 C 39.265625 -49.222656 39.578125 -50.800781 39.578125 -52.65625 C 39.578125 -54.519531 39.265625 -56.101562 38.640625 -57.40625 C 38.023438 -58.707031 37.28125 -59.695312 36.40625 -60.375 C 35.539062 -61.0625 34.394531 -61.585938 32.96875 -61.953125 C 31.550781 -62.328125 30.285156 -62.546875 29.171875 -62.609375 C 28.054688 -62.671875 26.691406 -62.703125 25.078125 -62.703125 L 23.03125 -62.703125 Z M 23.03125 -42.640625 "/></g></g></g><g fill="#012c18" fill-opacity="1"><g transform="translate(77.616892, 83.411135)"><g><path d="M 53.78125 -21.546875 L 19.234375 -21.546875 C 19.234375 -18.203125 20.316406 -15.722656 22.484375 -14.109375 C 24.648438 -12.503906 27.003906 -11.703125 29.546875 -11.703125 C 32.203125 -11.703125 34.300781 -12.054688 35.84375 -12.765625 C 37.394531 -13.484375 39.164062 -14.894531 41.15625 -17 L 53.046875 -11.046875 C 48.085938 -2.753906 39.847656 1.390625 28.328125 1.390625 C 21.148438 1.390625 14.988281 -1.066406 9.84375 -5.984375 C 4.707031 -10.910156 2.140625 -16.84375 2.140625 -23.78125 C 2.140625 -30.71875 4.707031 -36.660156 9.84375 -41.609375 C 14.988281 -46.566406 21.148438 -49.046875 28.328125 -49.046875 C 35.890625 -49.046875 42.035156 -46.863281 46.765625 -42.5 C 51.503906 -38.132812 53.875 -31.894531 53.875 -23.78125 C 53.875 -22.664062 53.84375 -21.921875 53.78125 -21.546875 Z M 19.6875 -30.65625 L 37.8125 -30.65625 C 37.4375 -33.132812 36.457031 -35.035156 34.875 -36.359375 C 33.300781 -37.691406 31.273438 -38.359375 28.796875 -38.359375 C 26.066406 -38.359375 23.894531 -37.644531 22.28125 -36.21875 C 20.675781 -34.800781 19.8125 -32.945312 19.6875 -30.65625 Z M 19.6875 -30.65625 "/></g></g></g><g fill="#012c18" fill-opacity="1"><g transform="translate(125.728307, 83.411135)"><g><path d="M 26.28125 -49.046875 C 29.007812 -49.046875 31.703125 -48.734375 34.359375 -48.109375 C 37.023438 -47.492188 39.007812 -46.878906 40.3125 -46.265625 L 42.265625 -45.328125 L 36.875 -34.5625 C 33.15625 -36.539062 29.625 -37.53125 26.28125 -37.53125 C 24.425781 -37.53125 23.109375 -37.328125 22.328125 -36.921875 C 21.554688 -36.515625 21.171875 -35.753906 21.171875 -34.640625 C 21.171875 -34.398438 21.203125 -34.15625 21.265625 -33.90625 C 21.328125 -33.65625 21.453125 -33.421875 21.640625 -33.203125 C 21.828125 -32.992188 22 -32.8125 22.15625 -32.65625 C 22.3125 -32.5 22.570312 -32.328125 22.9375 -32.140625 C 23.3125 -31.953125 23.609375 -31.8125 23.828125 -31.71875 C 24.046875 -31.625 24.398438 -31.484375 24.890625 -31.296875 C 25.390625 -31.117188 25.757812 -30.984375 26 -30.890625 C 26.25 -30.796875 26.664062 -30.65625 27.25 -30.46875 C 27.84375 -30.28125 28.296875 -30.15625 28.609375 -30.09375 C 30.523438 -29.539062 32.195312 -28.921875 33.625 -28.234375 C 35.050781 -27.554688 36.550781 -26.628906 38.125 -25.453125 C 39.707031 -24.273438 40.929688 -22.785156 41.796875 -20.984375 C 42.660156 -19.191406 43.09375 -17.148438 43.09375 -14.859375 C 43.09375 -4.023438 35.570312 1.390625 20.53125 1.390625 C 17.125 1.390625 13.882812 0.863281 10.8125 -0.1875 C 7.75 -1.238281 5.539062 -2.289062 4.1875 -3.34375 L 2.140625 -5.015625 L 8.828125 -16.25 C 9.316406 -15.820312 9.960938 -15.3125 10.765625 -14.71875 C 11.578125 -14.132812 13.035156 -13.332031 15.140625 -12.3125 C 17.242188 -11.289062 19.070312 -10.78125 20.625 -10.78125 C 24.03125 -10.78125 25.734375 -11.925781 25.734375 -14.21875 C 25.734375 -15.269531 25.296875 -16.085938 24.421875 -16.671875 C 23.554688 -17.265625 22.085938 -17.929688 20.015625 -18.671875 C 17.941406 -19.410156 16.316406 -20.09375 15.140625 -20.71875 C 12.171875 -22.257812 9.816406 -24.003906 8.078125 -25.953125 C 6.347656 -27.910156 5.484375 -30.5 5.484375 -33.71875 C 5.484375 -38.550781 7.351562 -42.3125 11.09375 -45 C 14.84375 -47.695312 19.90625 -49.046875 26.28125 -49.046875 Z M 26.28125 -49.046875 "/></g></g></g><g fill="#012c18" fill-opacity="1"><g transform="translate(163.529974, 83.411135)"><g><path d="M 53.78125 -21.546875 L 19.234375 -21.546875 C 19.234375 -18.203125 20.316406 -15.722656 22.484375 -14.109375 C 24.648438 -12.503906 27.003906 -11.703125 29.546875 -11.703125 C 32.203125 -11.703125 34.300781 -12.054688 35.84375 -12.765625 C 37.394531 -13.484375 39.164062 -14.894531 41.15625 -17 L 53.046875 -11.046875 C 48.085938 -2.753906 39.847656 1.390625 28.328125 1.390625 C 21.148438 1.390625 14.988281 -1.066406 9.84375 -5.984375 C 4.707031 -10.910156 2.140625 -16.84375 2.140625 -23.78125 C 2.140625 -30.71875 4.707031 -36.660156 9.84375 -41.609375 C 14.988281 -46.566406 21.148438 -49.046875 28.328125 -49.046875 C 35.890625 -49.046875 42.035156 -46.863281 46.765625 -42.5 C 51.503906 -38.132812 53.875 -31.894531 53.875 -23.78125 C 53.875 -22.664062 53.84375 -21.921875 53.78125 -21.546875 Z M 19.6875 -30.65625 L 37.8125 -30.65625 C 37.4375 -33.132812 36.457031 -35.035156 34.875 -36.359375 C 33.300781 -37.691406 31.273438 -38.359375 28.796875 -38.359375 C 26.066406 -38.359375 23.894531 -37.644531 22.28125 -36.21875 C 20.675781 -34.800781 19.8125 -32.945312 19.6875 -30.65625 Z M 19.6875 -30.65625 "/></g></g></g><g fill="#012c18" fill-opacity="1"><g transform="translate(211.641389, 83.411135)"><g><path d="M 8.359375 -47.65625 L 8.359375 -65.390625 L 24.796875 -65.390625 L 24.796875 -47.65625 L 34.828125 -47.65625 L 34.828125 -35.109375 L 24.796875 -35.109375 L 24.796875 -19.96875 C 24.796875 -15.570312 26.035156 -13.375 28.515625 -13.375 C 29.140625 -13.375 29.789062 -13.5 30.46875 -13.75 C 31.144531 -14 31.671875 -14.242188 32.046875 -14.484375 L 32.609375 -14.859375 L 36.6875 -1.578125 C 33.15625 0.398438 29.128906 1.390625 24.609375 1.390625 C 21.515625 1.390625 18.851562 0.847656 16.625 -0.234375 C 14.394531 -1.316406 12.707031 -2.769531 11.5625 -4.59375 C 10.414062 -6.425781 9.59375 -8.347656 9.09375 -10.359375 C 8.601562 -12.367188 8.359375 -14.519531 8.359375 -16.8125 L 8.359375 -35.109375 L 1.484375 -35.109375 L 1.484375 -47.65625 Z M 8.359375 -47.65625 "/></g></g></g><g fill="#012c18" fill-opacity="1"><g transform="translate(240.433649, 83.411135)"><g/></g></g><g fill="#012c18" fill-opacity="1"><g transform="translate(257.894449, 83.411135)"><g><path d="M 7.140625 -74.21875 C 9.066406 -76.132812 11.359375 -77.09375 14.015625 -77.09375 C 16.679688 -77.09375 18.972656 -76.132812 20.890625 -74.21875 C 22.816406 -72.300781 23.78125 -70.007812 23.78125 -67.34375 C 23.78125 -64.675781 22.816406 -62.382812 20.890625 -60.46875 C 18.972656 -58.550781 16.679688 -57.59375 14.015625 -57.59375 C 11.359375 -57.59375 9.066406 -58.550781 7.140625 -60.46875 C 5.222656 -62.382812 4.265625 -64.675781 4.265625 -67.34375 C 4.265625 -70.007812 5.222656 -72.300781 7.140625 -74.21875 Z M 5.578125 -47.65625 L 5.578125 0 L 22.015625 0 L 22.015625 -47.65625 Z M 5.578125 -47.65625 "/></g></g></g><g fill="#012c18" fill-opacity="1"><g transform="translate(278.048805, 83.411135)"><g><path d="M 5.578125 0 L 5.578125 -47.65625 L 22.015625 -47.65625 L 22.015625 -42.640625 L 22.203125 -42.640625 C 26.472656 -46.910156 31.023438 -49.046875 35.859375 -49.046875 C 38.210938 -49.046875 40.550781 -48.734375 42.875 -48.109375 C 45.195312 -47.492188 47.425781 -46.535156 49.5625 -45.234375 C 51.695312 -43.929688 53.425781 -42.085938 54.75 -39.703125 C 56.082031 -37.328125 56.75 -34.554688 56.75 -31.390625 L 56.75 0 L 40.3125 0 L 40.3125 -26.9375 C 40.3125 -29.414062 39.519531 -31.582031 37.9375 -33.4375 C 36.363281 -35.300781 34.304688 -36.234375 31.765625 -36.234375 C 29.285156 -36.234375 27.039062 -35.269531 25.03125 -33.34375 C 23.019531 -31.425781 22.015625 -29.289062 22.015625 -26.9375 L 22.015625 0 Z M 5.578125 0 "/></g></g></g><g fill="#012c18" fill-opacity="1"><g transform="translate(65.722861, 212.76585)"><g><path d="M 49.875 -76.640625 L 49.875 -61.3125 L 23.03125 -61.3125 L 23.03125 -46.078125 L 47.84375 -46.078125 L 47.84375 -30.75 L 23.03125 -30.75 L 23.03125 0 L 5.578125 0 L 5.578125 -76.640625 Z M 49.875 -76.640625 "/></g></g></g><g fill="#012c18" fill-opacity="1"><g transform="translate(110.490574, 212.76585)"><g><path d="M 5.578125 0 L 5.578125 -79.890625 L 22.015625 -79.890625 L 22.015625 0 Z M 5.578125 0 "/></g></g></g><g fill="#012c18" fill-opacity="1"><g transform="translate(130.180516, 212.76585)"><g><path d="M 10.078125 -5.65625 C 4.785156 -10.363281 2.140625 -16.398438 2.140625 -23.765625 C 2.140625 -31.140625 4.894531 -37.195312 10.40625 -41.9375 C 15.914062 -46.675781 22.726562 -49.046875 30.84375 -49.046875 C 38.832031 -49.046875 45.566406 -46.660156 51.046875 -41.890625 C 56.523438 -37.117188 59.265625 -31.078125 59.265625 -23.765625 C 59.265625 -16.460938 56.582031 -10.441406 51.21875 -5.703125 C 45.863281 -0.972656 39.070312 1.390625 30.84375 1.390625 C 22.289062 1.390625 15.367188 -0.957031 10.078125 -5.65625 Z M 22.796875 -31.859375 C 20.660156 -29.753906 19.59375 -27.0625 19.59375 -23.78125 C 19.59375 -20.5 20.613281 -17.820312 22.65625 -15.75 C 24.707031 -13.675781 27.40625 -12.640625 30.75 -12.640625 C 33.96875 -12.640625 36.613281 -13.691406 38.6875 -15.796875 C 40.757812 -17.898438 41.796875 -20.5625 41.796875 -23.78125 C 41.796875 -27.0625 40.726562 -29.753906 38.59375 -31.859375 C 36.457031 -33.960938 33.84375 -35.015625 30.75 -35.015625 C 27.59375 -35.015625 24.941406 -33.960938 22.796875 -31.859375 Z M 22.796875 -31.859375 "/></g></g></g><g fill="#012c18" fill-opacity="1"><g transform="translate(183.679005, 212.76585)"><g><path d="M 34.828125 0 L 23.6875 0 L -1.859375 -47.65625 L 17.09375 -47.65625 L 28.703125 -21.921875 L 40.125 -47.65625 L 51.46875 -47.65625 L 62.890625 -21.921875 L 74.5 -47.65625 L 93.453125 -47.65625 L 67.90625 0 L 56.75 0 L 45.796875 -24.609375 Z M 34.828125 0 "/></g></g></g></g></g><g clip-path="url(#a0b77d05f9)"><path fill="#fff9f3" d="M 272.589844 152.472656 C 275.945312 154.027344 278.472656 156.382812 279.664062 159.378906 C 278.664062 153.914062 273.367188 149.921875 266.625 148.285156 C 262.605469 147.257812 258.082031 146.953125 253.421875 147.203125 C 251.816406 147.285156 250.179688 147.453125 248.511719 147.675781 C 251.230469 146.480469 254.644531 146.261719 258.082031 146.953125 C 255.753906 145.898438 253.203125 145.207031 250.761719 145.039062 C 250.816406 145.011719 250.84375 145.011719 250.898438 144.984375 C 251.121094 144.871094 251.34375 144.761719 251.566406 144.679688 C 251.675781 144.625 251.816406 144.566406 251.925781 144.539062 C 252.0625 144.511719 252.175781 144.484375 252.3125 144.457031 C 254.503906 144.039062 259.609375 145.09375 259.636719 144.984375 C 259.664062 144.929688 259.636719 144.84375 259.582031 144.789062 C 258.359375 143.570312 256.640625 142.625 254.921875 142.070312 C 257.308594 141.933594 259.804688 142.402344 262.328125 143.152344 C 260.71875 142.347656 259 141.628906 257.222656 141.128906 C 259.832031 141.101562 262.132812 141.15625 264.960938 141.65625 C 263.382812 139.964844 260.96875 138.992188 258.75 138.546875 C 259.746094 138.078125 261.164062 138.1875 262.882812 138.742188 C 263.382812 138.910156 263.964844 139.074219 264.492188 139.242188 C 264.851562 139.378906 266.40625 139.714844 266.238281 139.601562 C 265.90625 139.378906 265.074219 138.796875 264.769531 138.605469 C 264.269531 138.300781 263.714844 137.964844 263.214844 137.6875 L 262.910156 137.523438 C 265.351562 137.1875 268.015625 137.300781 270.789062 137.910156 C 269.34375 137.050781 267.765625 136.328125 266.128906 135.691406 C 268.707031 135.304688 271.535156 135.664062 274.308594 136.664062 C 273.089844 135.859375 271.785156 135.109375 270.371094 134.527344 C 270.398438 134.527344 270.425781 134.527344 270.453125 134.527344 C 270.925781 134.5 271.425781 134.5 271.898438 134.472656 C 272.398438 134.472656 272.894531 134.472656 273.394531 134.472656 C 273.894531 134.472656 274.421875 134.5 274.949219 134.5 C 274.476562 134.222656 273.976562 133.945312 273.449219 133.695312 C 272.953125 133.472656 272.425781 133.222656 271.898438 133.027344 C 271.371094 132.835938 270.84375 132.640625 270.289062 132.472656 C 259.664062 129.257812 249.84375 133.222656 244.714844 139.9375 C 241.882812 128.148438 235.144531 119.878906 227.15625 117.246094 C 229.261719 118.742188 231.203125 120.546875 232.898438 122.792969 C 232.589844 122.542969 232.230469 122.320312 231.898438 122.101562 C 231.371094 121.765625 230.816406 121.515625 230.261719 121.324219 C 229.347656 121.019531 228.429688 120.851562 227.488281 120.851562 C 227.433594 120.851562 227.375 120.933594 227.375 121.019531 C 227.375 121.101562 229.042969 122.210938 229.761719 122.847656 C 230.121094 123.179688 230.484375 123.515625 230.816406 123.902344 L 231.316406 124.457031 C 231.480469 124.652344 231.648438 124.847656 231.789062 125.039062 C 232.007812 125.316406 232.230469 125.648438 232.425781 125.984375 C 231.09375 125.59375 229.679688 125.539062 228.238281 126.203125 C 230.398438 127.5625 232.453125 128.703125 234.5625 130.144531 C 232.898438 130.03125 231.148438 130.644531 229.511719 131.640625 C 231.566406 131.390625 233.5625 131.917969 235.144531 133.417969 C 234.007812 133.417969 232.203125 133.804688 232.203125 133.945312 C 232.203125 134.027344 232.285156 134.136719 232.285156 134.136719 C 233.425781 134.691406 234.421875 135.496094 235.421875 136.386719 C 236.113281 137.050781 236.917969 137.6875 237.558594 138.464844 C 237.527344 138.464844 237.527344 138.464844 237.5 138.464844 C 235.144531 136.078125 232.371094 134.554688 228.792969 133.167969 C 223.382812 130.949219 217.222656 130.617188 211.953125 133.027344 C 211.175781 133.363281 210.402344 133.804688 209.679688 134.277344 C 209.320312 134.5 208.957031 134.777344 208.625 135.027344 C 208.515625 135.082031 208.488281 135.21875 208.515625 135.359375 C 208.570312 135.496094 212.898438 134.25 214.921875 134.136719 C 213.339844 134.96875 211.925781 136.273438 210.898438 137.773438 C 210.871094 137.828125 210.84375 137.910156 210.898438 137.964844 C 210.957031 138.050781 213.230469 136.855469 214.3125 136.523438 C 215.558594 136.136719 216.808594 135.941406 218.085938 135.96875 C 216.726562 136.773438 215.421875 137.882812 214.644531 139.324219 C 214.617188 139.410156 214.589844 139.492188 214.644531 139.574219 C 214.894531 139.628906 218.140625 138.242188 219.386719 138.300781 C 219.222656 138.492188 219.054688 138.6875 218.917969 138.882812 L 218.335938 139.65625 C 218.085938 140.046875 217.808594 140.492188 217.558594 140.90625 C 217.417969 141.183594 217.03125 141.90625 216.890625 142.183594 C 217.113281 141.960938 217.667969 141.433594 217.890625 141.210938 C 218.222656 140.933594 218.613281 140.628906 218.945312 140.351562 L 219.691406 139.851562 C 221.386719 138.882812 222.855469 138.605469 223.964844 138.632812 C 222.105469 139.65625 220.441406 141.15625 219.136719 142.847656 C 220.832031 141.65625 222.660156 140.824219 224.628906 140.433594 C 223.578125 141.183594 221.746094 143.179688 221.773438 143.265625 C 221.855469 143.375 225.351562 142.015625 226.792969 141.90625 C 225.492188 142.625 224.296875 143.542969 223.242188 144.539062 C 225.019531 143.542969 226.90625 142.902344 228.820312 142.625 C 227.902344 143.429688 227.15625 144.457031 226.710938 145.539062 C 226.65625 145.539062 226.628906 145.539062 226.574219 145.566406 C 222.632812 146.507812 218.832031 148.117188 215.476562 150.335938 C 210.652344 153.636719 206.765625 158.160156 203.660156 162.957031 C 203.605469 163.070312 203.605469 163.179688 203.6875 163.292969 C 203.800781 163.402344 205.296875 162.070312 205.933594 161.488281 C 205.65625 162.015625 205.40625 162.542969 205.242188 163.097656 C 205.214844 163.152344 205.296875 163.234375 205.351562 163.179688 C 206.824219 161.933594 208.097656 160.738281 209.402344 159.378906 C 208.652344 161.074219 208.210938 162.957031 208.097656 164.761719 C 209.152344 161.960938 210.957031 159.464844 213.425781 157.800781 C 212.675781 159.574219 212.257812 161.597656 212.371094 163.511719 C 212.425781 163.542969 214.007812 161.265625 214.589844 160.324219 C 215.171875 159.296875 216.421875 157.160156 217.003906 156.164062 C 216.308594 158.105469 215.949219 160.269531 216.449219 162.292969 C 216.449219 162.292969 217.003906 159.742188 217.5 158.574219 C 217.722656 157.992188 218 157.4375 218.335938 156.910156 C 218.640625 156.355469 218.972656 155.859375 219.332031 155.359375 C 219.914062 154.527344 220.691406 153.859375 221.359375 153.082031 C 221.359375 153.082031 221.359375 153.082031 221.359375 153.113281 C 219.859375 155.414062 218.832031 158.105469 218.472656 160.765625 C 219.054688 159.324219 219.804688 157.992188 220.691406 156.800781 C 220.664062 157.964844 220.832031 159.074219 221.050781 160.183594 C 221.082031 160.269531 221.109375 160.324219 221.191406 160.351562 C 221.300781 160.40625 222.410156 157.964844 222.964844 156.996094 C 223.492188 156.050781 224.074219 155.191406 224.714844 154.554688 C 224.046875 155.96875 223.882812 157.632812 224.046875 159.160156 C 224.324219 156.746094 225.65625 154.609375 227.738281 153.390625 C 227.097656 155.023438 226.878906 156.996094 227.375 158.632812 C 226.40625 159.878906 225.574219 161.238281 224.851562 162.707031 C 224.628906 163.152344 224.4375 163.625 224.214844 164.097656 C 224.019531 164.566406 223.828125 165.039062 223.660156 165.511719 C 222.273438 169.28125 221.523438 173.472656 221.328125 177.742188 C 221.300781 178.046875 221.300781 178.382812 221.300781 178.6875 C 221.136719 178.824219 220.96875 178.992188 220.804688 179.128906 C 218.890625 181.015625 217.472656 183.566406 216.667969 186.285156 C 216.753906 183.847656 217.722656 181.460938 219.359375 179.601562 C 217.945312 180.515625 216.699219 181.738281 215.808594 183.179688 C 215.808594 183.152344 215.808594 183.097656 215.808594 183.070312 C 215.808594 182.875 215.808594 182.679688 215.835938 182.488281 C 215.835938 182.375 215.867188 182.292969 215.867188 182.179688 C 215.894531 182.097656 215.921875 181.988281 215.949219 181.902344 C 216.421875 180.324219 218.722656 177.660156 218.667969 177.605469 C 218.640625 177.550781 218.582031 177.550781 218.527344 177.550781 C 217.390625 177.660156 216.226562 178.269531 215.339844 179.046875 C 216.03125 177.464844 217.140625 176.164062 218.417969 174.996094 C 217.390625 175.578125 216.390625 176.273438 215.503906 177.105469 C 216.335938 175.441406 217.113281 174.054688 218.335938 172.554688 C 216.78125 172.667969 215.394531 173.664062 214.394531 174.832031 C 214.449219 173.972656 214.949219 173.136719 215.835938 172.335938 C 216.113281 172.113281 216.390625 171.835938 216.667969 171.585938 C 216.863281 171.445312 217.585938 170.640625 217.472656 170.667969 C 217.222656 170.753906 216.613281 170.976562 216.363281 171.058594 C 216.003906 171.226562 215.644531 171.390625 215.3125 171.558594 L 215.117188 171.667969 C 215.699219 169.976562 216.640625 168.367188 217.917969 166.925781 C 216.917969 167.398438 215.949219 167.980469 215.03125 168.671875 C 215.617188 166.871094 216.78125 165.289062 218.277344 164.066406 C 217.390625 164.402344 216.503906 164.84375 215.699219 165.398438 C 215.699219 165.371094 215.726562 165.371094 215.726562 165.34375 C 215.867188 165.039062 216.03125 164.734375 216.171875 164.402344 C 216.335938 164.097656 216.503906 163.789062 216.640625 163.457031 C 216.808594 163.152344 217.003906 162.847656 217.167969 162.515625 C 216.835938 162.679688 216.503906 162.847656 216.199219 163.015625 C 215.894531 163.207031 215.589844 163.402344 215.28125 163.625 C 214.976562 163.847656 214.699219 164.097656 214.421875 164.316406 C 208.570312 169.671875 208.152344 178.796875 211.371094 185.757812 C 208.402344 184.152344 205.351562 183.679688 201.46875 183.625 C 196.199219 183.457031 190.761719 185.066406 186.878906 188.671875 C 186.296875 189.199219 185.742188 189.78125 185.242188 190.390625 C 184.992188 190.695312 184.769531 191.003906 184.519531 191.308594 C 184.4375 191.390625 184.464844 191.53125 184.519531 191.613281 C 184.605469 191.722656 188.015625 189.367188 189.734375 188.644531 C 188.597656 189.808594 187.710938 191.308594 187.238281 192.859375 C 187.210938 192.917969 187.238281 192.972656 187.292969 193.027344 C 187.351562 193.082031 188.988281 191.417969 189.847656 190.808594 C 190.816406 190.113281 191.84375 189.558594 192.980469 189.199219 C 192.011719 190.28125 191.207031 191.585938 190.902344 192.972656 C 190.871094 193.027344 190.902344 193.109375 190.957031 193.164062 C 191.207031 193.136719 193.617188 191.03125 194.699219 190.667969 C 194.617188 190.863281 194.535156 191.085938 194.449219 191.28125 L 194.171875 192.113281 C 194.0625 192.5 193.953125 192.945312 193.839844 193.359375 C 193.785156 193.636719 193.675781 194.332031 193.617188 194.609375 C 193.757812 194.359375 194.089844 193.75 194.230469 193.527344 C 194.449219 193.195312 194.699219 192.832031 194.921875 192.5 L 195.421875 191.863281 C 196.613281 190.558594 197.835938 189.863281 198.804688 189.558594 C 197.476562 190.972656 196.449219 192.695312 195.78125 194.496094 C 196.917969 193 198.277344 191.75 199.886719 190.863281 C 199.167969 191.777344 198.140625 193.96875 198.195312 194.054688 C 198.308594 194.136719 200.941406 191.945312 202.164062 191.390625 C 201.246094 192.390625 200.441406 193.472656 199.804688 194.636719 C 201.082031 193.277344 202.523438 192.195312 204.105469 191.363281 C 204.105469 191.363281 204.105469 191.363281 204.105469 191.390625 C 203.523438 192.332031 203.160156 193.386719 203.078125 194.414062 C 204.601562 192.277344 207.378906 191.417969 209.847656 191.835938 C 209.539062 192.027344 209.261719 192.25 208.984375 192.472656 C 206.296875 193.582031 203.9375 195.328125 202.382812 197.742188 C 200.777344 200.378906 199.609375 203.289062 199.082031 206.398438 C 198.363281 210.890625 198.917969 215.632812 200.082031 220.15625 C 200.109375 220.238281 200.191406 220.320312 200.304688 220.320312 C 200.414062 220.320312 200.46875 218.742188 200.46875 218.046875 C 200.609375 218.492188 200.804688 218.933594 201.054688 219.378906 C 201.082031 219.433594 201.164062 219.433594 201.164062 219.351562 C 201.21875 217.824219 201.21875 216.4375 201.164062 214.96875 C 201.746094 216.382812 202.632812 217.742188 203.660156 218.878906 C 202.550781 216.632812 202.078125 214.191406 202.46875 211.917969 C 203.105469 213.386719 204.105469 214.828125 205.296875 215.910156 C 205.351562 215.910156 204.851562 213.71875 204.601562 212.832031 C 204.324219 211.917969 203.714844 209.976562 203.464844 209.058594 C 204.242188 210.585938 205.351562 212.082031 206.824219 213.027344 C 206.824219 213.027344 205.601562 211.195312 205.1875 210.253906 C 204.964844 209.78125 204.796875 209.308594 204.632812 208.808594 C 204.464844 208.339844 204.355469 207.839844 204.242188 207.339844 C 204.078125 206.535156 204.105469 205.730469 204.019531 204.925781 C 204.546875 207.089844 205.601562 209.253906 206.988281 211.03125 C 206.433594 209.863281 206.074219 208.671875 205.851562 207.480469 C 206.546875 208.199219 207.292969 208.78125 208.070312 209.335938 C 208.125 209.367188 208.183594 209.394531 208.265625 209.367188 C 208.375 209.335938 207.515625 207.3125 207.265625 206.425781 C 206.988281 205.566406 206.792969 204.761719 206.765625 204.039062 C 207.238281 205.230469 208.152344 206.339844 209.152344 207.144531 C 207.875 205.539062 207.320312 203.566406 207.738281 201.738281 C 208.375 203.070312 209.429688 204.371094 210.679688 205.09375 C 209.761719 203.652344 209.625 202.015625 209.984375 200.570312 C 210.566406 201.710938 211.34375 202.734375 212.203125 203.59375 C 212.34375 203.734375 212.5625 203.59375 212.480469 203.429688 C 212.007812 202.292969 211.621094 201.15625 211.511719 200.074219 C 211.953125 200.878906 212.480469 201.625 213.089844 202.292969 C 212.703125 200.792969 212.648438 199.378906 212.953125 198.046875 C 213.148438 198.851562 213.425781 199.628906 213.730469 200.351562 C 213.894531 197.632812 214.785156 195.21875 216.390625 193.25 C 216.449219 193.195312 216.503906 193.136719 216.53125 193.082031 C 223.519531 213.804688 229.457031 230.78125 229.402344 254.664062 C 229.402344 254.664062 230.707031 254.71875 234.476562 254.664062 C 234.117188 230.917969 227.710938 214.691406 218.222656 191.917969 C 218.25 191.917969 218.25 191.917969 218.277344 191.945312 C 218.417969 192 218.554688 192.085938 218.695312 192.167969 L 219.109375 192.445312 C 219.359375 192.640625 219.691406 192.917969 219.914062 193.136719 C 220.027344 193.25 220.191406 193.414062 220.304688 193.527344 C 220.832031 194.054688 221.273438 194.664062 221.773438 195.300781 C 221.828125 195.386719 221.941406 195.328125 221.882812 195.246094 C 221.523438 194.332031 221.050781 193.359375 220.46875 192.527344 C 220.414062 192.472656 220.386719 192.390625 220.332031 192.332031 C 221.664062 192.945312 222.855469 193.941406 223.855469 195.21875 C 223.464844 193.75 222.800781 192.304688 221.914062 191.03125 C 222.410156 191.335938 222.882812 191.722656 223.355469 192.167969 C 223.492188 192.332031 223.660156 192.472656 223.796875 192.640625 C 223.9375 192.804688 224.074219 192.972656 224.214844 193.164062 C 224.351562 193.332031 224.492188 193.527344 224.628906 193.691406 C 224.628906 193.691406 225.046875 194.246094 225.046875 194.246094 C 225.128906 194.359375 225.269531 194.277344 225.214844 194.164062 C 225.074219 193.71875 224.9375 193.25 224.742188 192.804688 C 224.660156 192.582031 224.546875 192.363281 224.4375 192.140625 C 224.324219 191.917969 224.1875 191.695312 224.074219 191.472656 C 224.019531 191.390625 223.964844 191.28125 223.910156 191.195312 C 224.964844 191.445312 225.933594 191.945312 226.792969 192.859375 C 227.347656 193.441406 227.847656 194.164062 228.238281 194.914062 C 228.097656 194.496094 227.988281 194.082031 227.792969 193.664062 C 227.238281 192.363281 226.351562 191.195312 225.242188 190.363281 C 227.210938 191.53125 228.902344 193.332031 230.234375 195.414062 C 229.984375 194.277344 229.625 193.109375 229.125 192 C 230.039062 192.917969 230.84375 193.96875 231.621094 195.023438 C 231.730469 195.164062 231.703125 193.691406 231.539062 193.109375 C 232.175781 193.832031 233.535156 195.910156 233.535156 195.71875 C 233.5625 195.164062 233.507812 194.554688 233.394531 193.96875 C 234.78125 194.96875 236.058594 196.132812 237.058594 197.714844 C 236.808594 196.355469 236.253906 194.914062 235.558594 193.636719 C 237.558594 194.773438 239.222656 196.660156 240.441406 198.851562 C 240.109375 197.6875 239.664062 196.523438 239.054688 195.414062 C 240.21875 196.21875 242.632812 197.882812 242.964844 197.992188 C 241.800781 216.523438 239.054688 236.214844 236.171875 254.664062 L 242.800781 254.664062 C 244.933594 235.855469 246.960938 216.578125 247.292969 197.519531 C 247.460938 188.007812 247.183594 178.464844 246.460938 169.003906 C 246.128906 164.59375 245.683594 160.210938 245.15625 155.828125 C 246.433594 157.6875 246.988281 160.128906 246.683594 162.320312 C 247.460938 160.574219 247.820312 158.546875 247.542969 156.605469 C 249.539062 158.382812 250.789062 161.265625 250.066406 164.011719 C 250.84375 163.234375 251.453125 162.210938 251.84375 161.042969 C 252.257812 162.929688 252.371094 164.898438 252.148438 166.871094 C 252.648438 165.539062 253.007812 164.125 253.171875 162.679688 C 253.589844 164.066406 253.5625 167.730469 253.644531 167.785156 C 253.757812 167.839844 253.894531 167.785156 253.949219 167.675781 C 254.476562 166.59375 254.921875 165.425781 255.171875 164.207031 C 255.53125 166.175781 255.449219 168.144531 255.003906 170.144531 C 256.003906 168.367188 256.695312 166.316406 256.945312 164.261719 C 257.113281 164.539062 257.308594 164.789062 257.472656 165.039062 C 257.640625 166.203125 257.585938 167.398438 257.390625 168.644531 L 257.222656 169.503906 C 257.113281 169.921875 256.972656 170.363281 256.863281 170.78125 C 256.753906 171.058594 256.503906 171.75 256.390625 172.027344 C 256.585938 171.808594 257.085938 171.195312 257.25 170.976562 C 257.5 170.613281 257.804688 170.226562 258.054688 169.835938 L 258.527344 169.035156 C 258.636719 168.839844 258.75 168.617188 258.859375 168.421875 C 259.332031 169.558594 259.25 172.945312 259.304688 173.222656 C 259.386719 173.304688 259.527344 173.277344 259.609375 173.195312 C 260.550781 171.972656 261.023438 170.421875 261.273438 168.867188 C 262.1875 171.140625 262.355469 173.582031 261.9375 176.023438 C 261.9375 176.078125 261.96875 176.164062 262.023438 176.191406 C 262.105469 176.246094 263.410156 173.941406 263.714844 172.695312 C 263.824219 172.195312 263.910156 171.695312 263.964844 171.167969 C 264.574219 173.109375 264.933594 177.519531 265.074219 177.550781 C 265.210938 177.578125 265.351562 177.492188 265.378906 177.355469 C 266.210938 174.082031 266.070312 170.503906 265.101562 167.148438 C 263.878906 162.929688 261.382812 159.269531 258.359375 156.136719 C 258.75 155.332031 258.972656 154.46875 258.941406 153.609375 C 258.941406 153.609375 258.941406 153.582031 258.941406 153.582031 C 260.109375 154.777344 260.996094 156.164062 261.46875 157.742188 C 261.550781 156.050781 261.246094 154.414062 260.578125 152.863281 C 262.1875 154.054688 263.046875 155.71875 263.546875 157.523438 C 263.632812 156.136719 263.519531 154.746094 262.992188 153.472656 C 264.65625 154.859375 265.601562 156.71875 265.90625 158.769531 C 266.433594 156.660156 266.347656 154.5 265.546875 152.667969 C 266.875 153.667969 267.652344 154.996094 267.984375 156.523438 L 268.125 157.246094 C 268.152344 157.605469 268.179688 157.992188 268.207031 158.355469 C 268.207031 158.605469 268.152344 159.269531 268.152344 159.519531 C 268.292969 159.269531 268.597656 158.574219 268.734375 158.328125 C 268.875 157.9375 269.066406 157.492188 269.207031 157.105469 L 269.429688 156.273438 C 269.539062 155.800781 269.621094 155.332031 269.652344 154.859375 C 270.871094 155.941406 271.785156 157.246094 271.925781 158.851562 C 272.367188 157.355469 272.121094 155.859375 271.5625 154.554688 C 274.199219 155.914062 275.917969 158.050781 276.113281 160.710938 C 276.722656 157.410156 275.171875 154.664062 272.589844 152.472656 Z M 241.414062 154.164062 Z M 226.738281 145.566406 C 229.042969 143.820312 232.203125 143.957031 234.617188 145.34375 C 234.476562 145.371094 234.339844 145.429688 234.171875 145.457031 C 231.730469 145.039062 229.207031 145.011719 226.738281 145.566406 Z M 230.957031 154.164062 C 230.816406 154.554688 230.707031 154.941406 230.59375 155.359375 C 230.261719 155.636719 229.929688 155.914062 229.597656 156.21875 C 228.820312 156.9375 228.097656 157.742188 227.40625 158.605469 C 227.902344 156.605469 229.289062 155.109375 230.957031 154.164062 Z M 227.902344 168.757812 C 228.097656 170.390625 228.457031 172.085938 229.042969 173.554688 C 228.238281 173.886719 227.460938 174.277344 226.683594 174.71875 C 226.765625 172.582031 227.128906 170.53125 227.902344 168.757812 Z M 225.878906 172.777344 C 225.960938 173.5 226.074219 174.25 226.238281 174.96875 C 225.742188 175.273438 225.242188 175.578125 224.769531 175.914062 C 225.15625 174.832031 225.601562 173.582031 225.878906 172.777344 Z M 222.46875 177.6875 C 222.828125 176.578125 223.214844 175.496094 223.605469 174.414062 C 223.632812 175.164062 223.714844 175.914062 223.796875 176.632812 C 223.328125 176.964844 222.882812 177.300781 222.46875 177.6875 Z M 242.9375 197.519531 C 242.9375 197.714844 242.910156 197.910156 242.910156 198.074219 C 242.496094 197.1875 242.023438 196.355469 241.523438 195.523438 C 242.023438 195.855469 242.523438 196.21875 242.992188 196.550781 C 242.964844 196.882812 242.964844 197.1875 242.9375 197.519531 Z M 243.078125 194.609375 C 241.273438 192.582031 239.25 190.808594 237.085938 189.339844 C 236.726562 189.089844 236.335938 188.867188 235.976562 188.617188 C 235.585938 188.394531 235.199219 188.171875 234.839844 187.980469 C 232.675781 186.839844 230.34375 186.09375 228.070312 185.84375 C 226.683594 185.675781 225.324219 185.703125 223.992188 185.898438 C 223.855469 185.925781 223.714844 185.953125 223.578125 185.980469 C 225.101562 185.09375 226.988281 184.789062 228.679688 185.425781 C 228.097656 184.648438 227.265625 184.039062 226.324219 183.597656 C 227.960938 183.402344 229.625 183.457031 231.289062 183.847656 C 230.207031 183.289062 229.042969 182.847656 227.820312 182.570312 C 229.042969 182.347656 232.121094 182.679688 232.203125 182.597656 C 232.257812 182.515625 232.230469 182.375 232.148438 182.320312 C 231.289062 181.738281 230.316406 181.265625 229.289062 180.933594 C 230.984375 180.792969 232.648438 181.042969 234.285156 181.597656 C 232.867188 180.542969 231.175781 179.742188 229.457031 179.351562 C 229.707031 179.242188 229.929688 179.074219 230.179688 178.964844 C 231.175781 178.910156 232.203125 179.074219 233.230469 179.351562 L 233.949219 179.574219 C 234.285156 179.710938 234.671875 179.878906 235.003906 180.019531 C 235.226562 180.128906 235.808594 180.433594 236.03125 180.542969 C 235.835938 180.351562 235.394531 179.851562 235.226562 179.683594 C 234.949219 179.433594 234.644531 179.128906 234.339844 178.878906 L 233.703125 178.382812 C 233.535156 178.269531 233.367188 178.160156 233.203125 178.046875 C 234.199219 177.742188 237.058594 178.105469 237.308594 178.074219 C 237.390625 177.992188 237.363281 177.882812 237.308594 177.796875 C 236.363281 176.855469 235.058594 176.273438 233.785156 175.941406 C 235.78125 175.328125 237.863281 175.414062 239.914062 175.996094 C 239.96875 175.996094 240.027344 175.996094 240.054688 175.941406 C 240.109375 175.882812 238.277344 174.527344 237.25 174.136719 C 236.835938 174 236.417969 173.859375 235.976562 173.777344 C 237.667969 173.417969 241.441406 173.472656 241.46875 173.359375 C 241.523438 173.25 241.441406 173.109375 241.328125 173.054688 C 238.640625 172.027344 235.585938 171.835938 232.648438 172.390625 C 231.453125 172.613281 230.289062 172.972656 229.152344 173.445312 C 229.097656 171.335938 229.484375 169.421875 230.066406 167.617188 C 230.34375 168.285156 230.648438 168.894531 231.039062 169.421875 C 231.148438 169.617188 231.066406 166.730469 231.203125 165.59375 C 231.425781 166.289062 232.3125 167.730469 232.3125 167.535156 C 232.371094 166.011719 232.398438 164.429688 232.648438 162.957031 C 232.898438 164.34375 233.3125 165.761719 233.785156 167.007812 C 233.644531 164.097656 234.0625 161.238281 235.089844 158.824219 C 234.617188 160.351562 234.535156 162.070312 234.867188 163.707031 C 234.949219 164.207031 235.117188 164.707031 235.253906 165.207031 C 235.144531 164.179688 235.117188 163.179688 235.28125 162.238281 C 235.476562 160.796875 236.058594 159.65625 236.835938 158.742188 C 236.835938 158.882812 236.835938 158.992188 236.863281 159.128906 C 236.890625 159.4375 236.917969 159.714844 236.945312 159.992188 C 237.003906 160.269531 237.058594 160.574219 237.113281 160.851562 C 237.222656 161.40625 237.390625 161.960938 237.527344 162.488281 C 237.558594 162.625 237.75 162.625 237.75 162.460938 C 237.75 162.429688 237.777344 161.65625 237.777344 161.628906 C 237.777344 161.351562 237.777344 161.101562 237.804688 160.824219 C 237.835938 160.574219 237.835938 160.296875 237.863281 160.046875 C 237.890625 159.796875 237.945312 159.546875 237.972656 159.296875 C 238.113281 158.546875 238.277344 157.855469 238.527344 157.246094 C 238.5 159.074219 238.832031 160.90625 239.386719 162.597656 C 239.5 160.710938 239.941406 158.964844 240.746094 157.492188 C 240.746094 157.578125 240.746094 157.6875 240.746094 157.769531 C 240.71875 158.964844 240.914062 160.183594 241.164062 161.351562 C 241.191406 161.460938 241.300781 161.460938 241.300781 161.320312 C 241.328125 160.40625 241.355469 159.492188 241.496094 158.632812 C 241.523438 158.4375 241.550781 158.1875 241.605469 157.992188 C 241.664062 157.632812 241.800781 157.160156 241.910156 156.800781 L 242.105469 156.246094 C 242.1875 156.078125 242.273438 155.914062 242.355469 155.746094 C 242.410156 155.664062 242.464844 155.582031 242.523438 155.496094 C 242.882812 160.074219 243.160156 164.679688 243.296875 169.253906 C 243.605469 177.769531 243.519531 186.203125 243.078125 194.609375 Z M 256.167969 154.277344 C 255.726562 153.886719 255.226562 153.527344 254.726562 153.167969 C 256.085938 153.722656 257.140625 154.582031 257.640625 155.691406 C 257.167969 155.191406 256.667969 154.71875 256.167969 154.277344 Z M 256.167969 154.277344 " fill-opacity="1" fill-rule="nonzero"/></g><g clip-path="url(#8f7ed0b867)"><path fill="#fff9f3" d="M 111.679688 203.648438 C 111.375 203.601562 110.589844 203.671875 110.625 203.988281 C 110.660156 204.304688 110.738281 204.660156 110.648438 204.804688 C 110.554688 204.953125 110.195312 205.554688 110.195312 205.554688 C 110.195312 205.554688 109.839844 205.28125 109.480469 205.203125 C 109.117188 205.121094 108.121094 205.042969 107.9375 204.941406 C 107.757812 204.839844 106.15625 203.675781 105.832031 203.40625 C 105.511719 203.132812 104.507812 202.453125 104.082031 202.011719 C 103.65625 201.570312 103.421875 201.6875 103.421875 201.109375 C 103.421875 200.53125 103.183594 200.257812 102.757812 199.851562 C 102.332031 199.441406 102.09375 199.019531 102.011719 198.253906 C 101.925781 197.488281 101.332031 194.886719 101.09375 194.378906 C 100.851562 193.867188 100.53125 192.457031 100.496094 191.894531 C 100.460938 191.335938 100.699219 191.078125 100.648438 190.46875 C 100.597656 189.855469 100.546875 189.734375 100.902344 189.535156 C 101.257812 189.328125 101.683594 188.851562 101.683594 188.667969 C 101.683594 188.480469 100.511719 188.460938 100.308594 188.308594 C 100.105469 188.160156 100 187.871094 99.816406 187.648438 C 99.628906 187.425781 99.507812 187.085938 99.507812 187.085938 L 99.710938 186.882812 C 99.710938 186.882812 100.542969 187.273438 101.089844 187.136719 C 101.636719 187 101.855469 185.488281 102.007812 185.113281 C 102.160156 184.742188 102.722656 183.90625 102.773438 183.5 C 102.824219 183.09375 102.859375 182.71875 102.859375 182.71875 C 102.859375 182.71875 104.523438 181.9375 105.050781 181.292969 C 105.578125 180.648438 105.902344 178.351562 105.683594 178.078125 C 105.460938 177.808594 103.167969 177.996094 102.960938 177.976562 C 102.757812 177.960938 101.261719 175.777344 100.261719 175.730469 C 99.257812 175.679688 97.628906 175.847656 96.640625 176.308594 C 95.65625 176.765625 94.824219 177.871094 94.667969 178.550781 C 94.515625 179.230469 94.855469 180.980469 94.734375 181.324219 C 94.617188 181.664062 92.746094 182.546875 92.558594 182.683594 C 92.371094 182.820312 92.507812 183.125 92.507812 183.125 C 92.507812 183.125 90.078125 182.441406 89.332031 182.546875 C 88.585938 182.648438 87.496094 182.835938 87.070312 183.363281 C 86.644531 183.890625 85.164062 185.589844 84.808594 186.234375 C 84.453125 186.882812 84.042969 187.628906 83.773438 187.699219 C 83.5 187.765625 81.476562 187.96875 81.273438 188.140625 C 81.070312 188.308594 79.949219 190.636719 79.40625 192.644531 C 78.863281 194.648438 78.453125 198.933594 78.621094 199.683594 C 78.792969 200.429688 78.964844 202.027344 78.894531 202.878906 C 78.828125 203.726562 79.640625 204.953125 79.710938 205.425781 C 79.78125 205.902344 80.578125 207.433594 80.457031 207.636719 C 80.339844 207.839844 79.761719 208.25 80.085938 208.691406 C 80.410156 209.128906 81.582031 209.625 81.582031 209.625 C 81.582031 209.625 81.546875 212.070312 81.71875 212.855469 C 81.890625 213.636719 82.515625 213.824219 82.515625 213.824219 L 83.046875 213.433594 C 83.046875 213.433594 82.347656 212.992188 82.414062 212.019531 C 82.484375 211.050781 82.5 209.777344 82.5 209.777344 L 83.179688 209.792969 C 83.179688 209.792969 83.707031 210.746094 84.605469 211.136719 L 85.03125 210.710938 C 85.03125 210.710938 84.386719 210.300781 84.132812 209.742188 C 84.132812 209.742188 85.167969 210.046875 85.746094 210.03125 C 86.324219 210.011719 87.003906 209.742188 87.003906 209.742188 C 87.003906 209.742188 87.191406 211.746094 87.292969 211.96875 C 87.394531 212.1875 87.75 212.1875 87.75 212.292969 C 87.75 212.394531 88.328125 215.316406 89.027344 216.320312 C 89.722656 217.324219 90.351562 217.628906 90.351562 217.628906 C 90.351562 217.628906 90.277344 218.378906 90.269531 219.183594 L 69.847656 236.882812 C 69.53125 236.574219 69.246094 236.386719 69.171875 236.453125 C 69.097656 236.523438 69.253906 236.820312 69.53125 237.15625 L 66.28125 239.976562 C 66.28125 239.976562 66.238281 240.160156 66.320312 240.261719 C 66.402344 240.363281 66.519531 240.335938 66.519531 240.335938 L 69.851562 237.511719 C 70.167969 237.824219 70.453125 238.007812 70.527344 237.9375 C 70.601562 237.871094 70.449219 237.574219 70.171875 237.238281 L 90.296875 220.15625 C 90.324219 220.484375 90.375 220.765625 90.460938 220.941406 C 90.816406 221.65625 91.023438 222.726562 90.972656 223.136719 C 90.921875 223.542969 90.820312 223.976562 90.820312 224.207031 C 90.820312 224.4375 90.894531 224.921875 90.488281 225.226562 C 90.078125 225.53125 89.542969 226.476562 88.878906 226.835938 C 88.21875 227.191406 85.613281 228.464844 84.058594 229.410156 C 82.503906 230.351562 80.082031 232.265625 79.519531 232.902344 C 78.960938 233.539062 78.09375 234.253906 77.9375 234.253906 C 77.785156 234.253906 76.597656 234.1875 76.027344 234.332031 C 75.457031 234.472656 74.898438 234.738281 74.855469 234.738281 C 74.8125 234.738281 74.292969 234.636719 73.867188 234.816406 C 73.441406 234.992188 74.121094 238.242188 74.316406 238.589844 C 74.511719 238.9375 74.921875 239.199219 74.949219 239.683594 C 74.972656 240.167969 75.296875 242.574219 75.695312 243.59375 C 76.09375 244.617188 77.429688 246.273438 77.828125 246.425781 C 78.226562 246.578125 78.695312 246.117188 78.695312 246.117188 C 78.695312 246.117188 79.042969 245.875 78.957031 245.347656 C 78.871094 244.816406 78.601562 243.578125 78.71875 243.085938 C 78.835938 242.589844 79.519531 241.945312 79.566406 241.25 C 79.617188 240.550781 79.71875 239.601562 79.855469 239.480469 C 79.992188 239.363281 81.320312 238.800781 81.421875 238.53125 C 81.523438 238.257812 82.289062 238.378906 82.371094 237.96875 C 82.457031 237.5625 83.511719 236.761719 84.140625 236.253906 C 84.769531 235.742188 87.132812 233.890625 88.03125 233.328125 C 88.933594 232.769531 89.96875 232.582031 90.292969 232.445312 C 90.617188 232.308594 90.9375 231.746094 91.179688 231.628906 C 91.417969 231.507812 92.453125 231.085938 92.945312 230.882812 C 93.4375 230.675781 94.304688 230.40625 94.648438 230.167969 C 94.988281 229.925781 95.445312 229.199219 95.445312 229.199219 C 95.445312 229.199219 95.617188 232.511719 95.496094 233.15625 C 95.378906 233.800781 95.273438 236.742188 95.273438 237.953125 C 95.273438 239.160156 95.308594 241.554688 95.410156 241.742188 C 95.515625 241.929688 96.109375 242.066406 96.023438 242.269531 C 95.941406 242.472656 95.464844 242.941406 95.53125 243.316406 C 95.597656 243.6875 96.023438 244.554688 96 245.175781 C 95.972656 245.796875 95.878906 246.367188 96.203125 246.457031 C 96.527344 246.542969 97.621094 246.664062 98.878906 246.648438 C 100.136719 246.628906 100.078125 246.230469 100.324219 246.152344 C 100.570312 246.078125 101.648438 246.09375 102.28125 246.300781 C 102.910156 246.503906 104.269531 246.65625 105.347656 246.578125 C 106.429688 246.503906 107.558594 246.316406 107.832031 246.128906 C 108.105469 245.941406 107.679688 245.398438 107.679688 245.398438 C 107.679688 245.398438 107.375 244.503906 106.582031 244.386719 C 105.792969 244.265625 104.976562 244.164062 104.433594 243.867188 C 103.890625 243.570312 103.5 243.007812 103.0625 242.742188 C 102.839844 242.605469 102.496094 242.363281 102.203125 242.109375 L 102.808594 239.679688 C 103.246094 239.746094 103.589844 239.734375 103.609375 239.632812 C 103.628906 239.535156 103.328125 239.386719 102.90625 239.273438 L 110.257812 209.84375 C 110.59375 209.890625 110.988281 209.824219 111.054688 209.757812 C 111.148438 209.664062 111.222656 209.429688 111.222656 209.429688 C 111.222656 209.429688 111.675781 209.308594 111.824219 209.160156 C 111.972656 209.011719 111.882812 208.730469 111.882812 208.730469 C 111.882812 208.730469 112.234375 208.582031 112.253906 208.300781 C 112.277344 208.015625 112.097656 207.800781 112.097656 207.800781 C 112.097656 207.800781 112.460938 207.480469 112.4375 207.175781 C 112.414062 206.871094 111.949219 206.335938 111.769531 206.214844 C 111.589844 206.089844 111.746094 205.328125 111.90625 205.171875 C 112.0625 205.011719 112.789062 204.808594 112.8125 204.527344 C 112.832031 204.242188 111.984375 203.699219 111.675781 203.652344 Z M 102.445312 239.171875 C 102.007812 239.101562 101.667969 239.121094 101.644531 239.21875 C 101.625 239.316406 101.925781 239.464844 102.347656 239.578125 L 101.832031 241.746094 C 101.738281 241.640625 101.667969 241.539062 101.640625 241.457031 C 101.515625 241.09375 101.582031 240.898438 101.378906 240.742188 C 101.175781 240.582031 100.902344 240.398438 100.902344 240.398438 C 100.902344 240.398438 101.3125 239.335938 101.265625 239.003906 C 101.21875 238.675781 100.824219 237.226562 100.789062 236.828125 C 100.753906 236.429688 101.480469 234.042969 101.273438 233.152344 C 101.070312 232.257812 100.890625 231.339844 100.96875 230.804688 C 101.042969 230.269531 102.269531 228.839844 102.269531 227.566406 C 102.269531 226.292969 101.53125 224.277344 101.402344 223.488281 C 101.273438 222.695312 101.199219 220.628906 100.96875 219.6875 C 100.738281 218.746094 100.230469 218.03125 100.027344 217.007812 C 99.820312 215.988281 99.335938 215.453125 99.390625 215.019531 C 99.4375 214.585938 99.566406 214.078125 99.722656 213.695312 C 99.875 213.3125 99.816406 212.609375 99.816406 212.609375 C 99.816406 212.609375 100.167969 212.5625 100.328125 212.507812 C 100.484375 212.449219 100.566406 212.1875 100.566406 212.1875 C 100.566406 212.1875 101.019531 212.414062 101.210938 212.347656 C 101.40625 212.28125 101.5625 211.871094 101.5625 211.871094 C 101.5625 211.871094 102.074219 211.882812 102.265625 211.691406 C 102.457031 211.5 102.480469 211.078125 102.480469 211.078125 C 102.480469 211.078125 103.136719 210.898438 103.242188 210.707031 C 103.34375 210.511719 103.007812 209.746094 103.105469 209.652344 C 103.199219 209.554688 103.964844 209.503906 104.371094 209.449219 C 104.78125 209.390625 103.988281 208.382812 103.601562 208.0625 C 103.214844 207.746094 102.941406 207.632812 102.785156 207.746094 C 102.625 207.859375 102.578125 208.074219 102.433594 208.15625 C 102.285156 208.234375 102.089844 208.304688 102.089844 208.304688 C 102.089844 208.304688 101.707031 207.769531 101.273438 207.578125 C 100.84375 207.382812 99.960938 207.476562 99.960938 207.476562 C 99.960938 207.476562 99.484375 206.945312 99.402344 206.726562 C 99.324219 206.511719 99.664062 204.902344 99.664062 204.902344 C 99.664062 204.902344 101.773438 206.320312 102.613281 207.089844 C 103.449219 207.863281 105.285156 208.382812 105.820312 208.507812 C 106.355469 208.632812 107.167969 208.757812 107.386719 208.710938 C 107.601562 208.664062 107.691406 208.449219 107.691406 208.449219 C 107.691406 208.449219 108.019531 208.460938 108.234375 208.644531 C 108.398438 208.785156 109.097656 209.148438 109.542969 209.441406 Z M 102.445312 239.171875 " fill-opacity="1" fill-rule="nonzero"/></g><path stroke-linecap="butt" transform="matrix(0.000000001309, 0.75, -0.75, 0.000000001309, 188.096519, 226.796412)" fill="none" stroke-linejoin="miter" d="M 0.000617985 3.498484 L 12.886035 3.498484 " stroke="#012c18" stroke-width="7" stroke-opacity="1" stroke-miterlimit="4"/><path stroke-linecap="butt" transform="matrix(0.000000001309, 0.75, -0.75, 0.000000001309, 180.324266, 226.796412)" fill="none" stroke-linejoin="miter" d="M 0.000617985 3.000064 L 12.886035 3.000064 " stroke="#012c18" stroke-width="6" stroke-opacity="1" stroke-miterlimit="4"/><path stroke-linecap="butt" transform="matrix(0.000000001309, 0.75, -0.75, 0.000000001309, 173.309904, 226.796412)" fill="none" stroke-linejoin="miter" d="M 0.000617986 2.501748 L 12.886035 2.501748 " stroke="#012c18" stroke-width="5" stroke-opacity="1" stroke-miterlimit="4"/><path stroke-linecap="butt" transform="matrix(0.000000001309, 0.75, -0.75, 0.000000001309, 167.05347, 226.796412)" fill="none" stroke-linejoin="miter" d="M 0.000617987 1.998376 L 12.886035 1.998376 " stroke="#012c18" stroke-width="4" stroke-opacity="1" stroke-miterlimit="4"/><path stroke-linecap="butt" transform="matrix(0.000000001309, 0.75, -0.75, 0.000000001309, 161.554959, 226.796412)" fill="none" stroke-linejoin="miter" d="M 0.000617988 1.500363 L 12.886036 1.500363 " stroke="#012c18" stroke-width="3" stroke-opacity="1" stroke-miterlimit="4"/><path stroke-linecap="butt" transform="matrix(0.000000001309, 0.75, -0.75, 0.000000001309, 156.81436, 226.796412)" fill="none" stroke-linejoin="miter" d="M 0.000617989 1.00248 L 12.886036 1.00248 " stroke="#012c18" stroke-width="2" stroke-opacity="1" stroke-miterlimit="4"/><g fill="#012c18" fill-opacity="1"><g transform="translate(206.747643, 236.581976)"><g><path d="M 0.140625 -9.796875 L 4.90625 -9.796875 L 4.90625 -8.40625 L 3.296875 -8.40625 L 3.296875 0 L 1.75 0 L 1.75 -8.40625 L 0.140625 -8.40625 Z M 0.140625 -9.796875 "/></g></g></g><g fill="#012c18" fill-opacity="1"><g transform="translate(213.18483, 236.581976)"><g><path d="M 2.09375 0 L 0.5625 0 L 0.5625 -9.796875 L 2.09375 -9.796875 L 2.09375 -5.59375 L 3.84375 -5.59375 L 3.84375 -9.796875 L 5.421875 -9.796875 L 5.421875 0 L 3.84375 0 L 3.84375 -4.203125 L 2.09375 -4.203125 Z M 2.09375 0 "/></g></g></g><g fill="#012c18" fill-opacity="1"><g transform="translate(220.559494, 236.581976)"><g><path d="M 2.09375 -5.671875 L 4.21875 -5.671875 L 4.21875 -4.265625 L 2.09375 -4.265625 L 2.09375 -1.40625 L 4.765625 -1.40625 L 4.765625 0 L 0.5625 0 L 0.5625 -9.796875 L 4.765625 -9.796875 L 4.765625 -8.40625 L 2.09375 -8.40625 Z M 2.09375 -5.671875 "/></g></g></g><g fill="#012c18" fill-opacity="1"><g transform="translate(227.108627, 236.581976)"><g/></g></g><g fill="#012c18" fill-opacity="1"><g transform="translate(230.677421, 236.581976)"><g><path d="M 2.875 -5.453125 L 5.03125 -5.453125 L 5.03125 -2.359375 C 5.03125 -1.554688 4.832031 -0.941406 4.4375 -0.515625 C 4.050781 -0.0976562 3.484375 0.109375 2.734375 0.109375 C 1.972656 0.109375 1.398438 -0.0976562 1.015625 -0.515625 C 0.628906 -0.941406 0.4375 -1.554688 0.4375 -2.359375 L 0.4375 -7.453125 C 0.4375 -8.242188 0.628906 -8.847656 1.015625 -9.265625 C 1.398438 -9.691406 1.972656 -9.90625 2.734375 -9.90625 C 3.484375 -9.90625 4.050781 -9.691406 4.4375 -9.265625 C 4.832031 -8.847656 5.03125 -8.242188 5.03125 -7.453125 L 5.03125 -6.5 L 3.5625 -6.5 L 3.5625 -7.546875 C 3.5625 -7.898438 3.488281 -8.148438 3.34375 -8.296875 C 3.207031 -8.441406 3.015625 -8.515625 2.765625 -8.515625 C 2.523438 -8.515625 2.332031 -8.441406 2.1875 -8.296875 C 2.039062 -8.148438 1.96875 -7.898438 1.96875 -7.546875 L 1.96875 -2.25 C 1.96875 -1.894531 2.039062 -1.644531 2.1875 -1.5 C 2.332031 -1.363281 2.523438 -1.296875 2.765625 -1.296875 C 3.015625 -1.296875 3.207031 -1.363281 3.34375 -1.5 C 3.488281 -1.644531 3.5625 -1.894531 3.5625 -2.25 L 3.5625 -4.0625 L 2.875 -4.0625 Z M 2.875 -5.453125 "/></g></g></g><g fill="#012c18" fill-opacity="1"><g transform="translate(237.534377, 236.581976)"><g><path d="M 3.78125 0 C 3.757812 -0.0625 3.738281 -0.117188 3.71875 -0.171875 C 3.707031 -0.234375 3.691406 -0.304688 3.671875 -0.390625 C 3.660156 -0.472656 3.648438 -0.578125 3.640625 -0.703125 C 3.640625 -0.835938 3.640625 -1.003906 3.640625 -1.203125 L 3.640625 -2.75 C 3.640625 -3.207031 3.554688 -3.523438 3.390625 -3.703125 C 3.234375 -3.890625 2.976562 -3.984375 2.625 -3.984375 L 2.09375 -3.984375 L 2.09375 0 L 0.5625 0 L 0.5625 -9.796875 L 2.890625 -9.796875 C 3.691406 -9.796875 4.269531 -9.609375 4.625 -9.234375 C 4.988281 -8.867188 5.171875 -8.304688 5.171875 -7.546875 L 5.171875 -6.78125 C 5.171875 -5.769531 4.832031 -5.101562 4.15625 -4.78125 C 4.550781 -4.625 4.820312 -4.363281 4.96875 -4 C 5.113281 -3.644531 5.1875 -3.210938 5.1875 -2.703125 L 5.1875 -1.1875 C 5.1875 -0.945312 5.191406 -0.734375 5.203125 -0.546875 C 5.222656 -0.367188 5.269531 -0.1875 5.34375 0 Z M 2.09375 -8.40625 L 2.09375 -5.390625 L 2.703125 -5.390625 C 2.992188 -5.390625 3.21875 -5.460938 3.375 -5.609375 C 3.539062 -5.765625 3.625 -6.035156 3.625 -6.421875 L 3.625 -7.390625 C 3.625 -7.742188 3.5625 -8 3.4375 -8.15625 C 3.3125 -8.320312 3.113281 -8.40625 2.84375 -8.40625 Z M 2.09375 -8.40625 "/></g></g></g><g fill="#012c18" fill-opacity="1"><g transform="translate(244.55924, 236.581976)"><g><path d="M 2.09375 -5.671875 L 4.21875 -5.671875 L 4.21875 -4.265625 L 2.09375 -4.265625 L 2.09375 -1.40625 L 4.765625 -1.40625 L 4.765625 0 L 0.5625 0 L 0.5625 -9.796875 L 4.765625 -9.796875 L 4.765625 -8.40625 L 2.09375 -8.40625 Z M 2.09375 -5.671875 "/></g></g></g><g fill="#012c18" fill-opacity="1"><g transform="translate(251.108373, 236.581976)"><g><path d="M 5.546875 0 L 3.984375 0 L 3.71875 -1.78125 L 1.828125 -1.78125 L 1.5625 0 L 0.15625 0 L 1.71875 -9.796875 L 3.96875 -9.796875 Z M 2.03125 -3.109375 L 3.515625 -3.109375 L 2.765625 -8.0625 Z M 2.03125 -3.109375 "/></g></g></g><g fill="#012c18" fill-opacity="1"><g transform="translate(258.203195, 236.581976)"><g><path d="M 0.140625 -9.796875 L 4.90625 -9.796875 L 4.90625 -8.40625 L 3.296875 -8.40625 L 3.296875 0 L 1.75 0 L 1.75 -8.40625 L 0.140625 -8.40625 Z M 0.140625 -9.796875 "/></g></g></g><g fill="#012c18" fill-opacity="1"><g transform="translate(264.640381, 236.581976)"><g/></g></g><g fill="#012c18" fill-opacity="1"><g transform="translate(268.209175, 236.581976)"><g><path d="M 1.96875 -2.25 C 1.96875 -1.894531 2.039062 -1.644531 2.1875 -1.5 C 2.332031 -1.351562 2.523438 -1.28125 2.765625 -1.28125 C 3.015625 -1.28125 3.207031 -1.351562 3.34375 -1.5 C 3.488281 -1.644531 3.5625 -1.894531 3.5625 -2.25 L 3.5625 -7.546875 C 3.5625 -7.898438 3.488281 -8.148438 3.34375 -8.296875 C 3.207031 -8.441406 3.015625 -8.515625 2.765625 -8.515625 C 2.523438 -8.515625 2.332031 -8.441406 2.1875 -8.296875 C 2.039062 -8.148438 1.96875 -7.898438 1.96875 -7.546875 Z M 0.4375 -7.453125 C 0.4375 -8.242188 0.632812 -8.847656 1.03125 -9.265625 C 1.4375 -9.691406 2.015625 -9.90625 2.765625 -9.90625 C 3.523438 -9.90625 4.101562 -9.691406 4.5 -9.265625 C 4.90625 -8.847656 5.109375 -8.242188 5.109375 -7.453125 L 5.109375 -2.359375 C 5.109375 -1.554688 4.90625 -0.941406 4.5 -0.515625 C 4.101562 -0.0976562 3.523438 0.109375 2.765625 0.109375 C 2.015625 0.109375 1.4375 -0.0976562 1.03125 -0.515625 C 0.632812 -0.941406 0.4375 -1.554688 0.4375 -2.359375 Z M 0.4375 -7.453125 "/></g></g></g><g fill="#012c18" fill-opacity="1"><g transform="translate(275.150085, 236.581976)"><g><path d="M 2.03125 -9.796875 L 2.03125 -2.234375 C 2.03125 -1.878906 2.101562 -1.628906 2.25 -1.484375 C 2.394531 -1.347656 2.585938 -1.28125 2.828125 -1.28125 C 3.066406 -1.28125 3.257812 -1.347656 3.40625 -1.484375 C 3.550781 -1.628906 3.625 -1.878906 3.625 -2.234375 L 3.625 -9.796875 L 5.078125 -9.796875 L 5.078125 -2.34375 C 5.078125 -1.539062 4.882812 -0.925781 4.5 -0.5 C 4.113281 -0.0820312 3.539062 0.125 2.78125 0.125 C 2.03125 0.125 1.457031 -0.0820312 1.0625 -0.5 C 0.675781 -0.925781 0.484375 -1.539062 0.484375 -2.34375 L 0.484375 -9.796875 Z M 2.03125 -9.796875 "/></g></g></g><g fill="#012c18" fill-opacity="1"><g transform="translate(282.118976, 236.581976)"><g><path d="M 0.140625 -9.796875 L 4.90625 -9.796875 L 4.90625 -8.40625 L 3.296875 -8.40625 L 3.296875 0 L 1.75 0 L 1.75 -8.40625 L 0.140625 -8.40625 Z M 0.140625 -9.796875 "/></g></g></g><g fill="#012c18" fill-opacity="1"><g transform="translate(288.556163, 236.581976)"><g><path d="M 0.5625 -9.796875 L 3 -9.796875 C 3.769531 -9.796875 4.34375 -9.585938 4.71875 -9.171875 C 5.101562 -8.765625 5.296875 -8.164062 5.296875 -7.375 L 5.296875 -2.421875 C 5.296875 -1.628906 5.101562 -1.023438 4.71875 -0.609375 C 4.34375 -0.203125 3.769531 0 3 0 L 0.5625 0 Z M 2.09375 -8.40625 L 2.09375 -1.40625 L 2.96875 -1.40625 C 3.207031 -1.40625 3.394531 -1.472656 3.53125 -1.609375 C 3.675781 -1.742188 3.75 -1.992188 3.75 -2.359375 L 3.75 -7.453125 C 3.75 -7.804688 3.675781 -8.050781 3.53125 -8.1875 C 3.394531 -8.332031 3.207031 -8.40625 2.96875 -8.40625 Z M 2.09375 -8.40625 "/></g></g></g><g fill="#012c18" fill-opacity="1"><g transform="translate(295.66498, 236.581976)"><g><path d="M 1.96875 -2.25 C 1.96875 -1.894531 2.039062 -1.644531 2.1875 -1.5 C 2.332031 -1.351562 2.523438 -1.28125 2.765625 -1.28125 C 3.015625 -1.28125 3.207031 -1.351562 3.34375 -1.5 C 3.488281 -1.644531 3.5625 -1.894531 3.5625 -2.25 L 3.5625 -7.546875 C 3.5625 -7.898438 3.488281 -8.148438 3.34375 -8.296875 C 3.207031 -8.441406 3.015625 -8.515625 2.765625 -8.515625 C 2.523438 -8.515625 2.332031 -8.441406 2.1875 -8.296875 C 2.039062 -8.148438 1.96875 -7.898438 1.96875 -7.546875 Z M 0.4375 -7.453125 C 0.4375 -8.242188 0.632812 -8.847656 1.03125 -9.265625 C 1.4375 -9.691406 2.015625 -9.90625 2.765625 -9.90625 C 3.523438 -9.90625 4.101562 -9.691406 4.5 -9.265625 C 4.90625 -8.847656 5.109375 -8.242188 5.109375 -7.453125 L 5.109375 -2.359375 C 5.109375 -1.554688 4.90625 -0.941406 4.5 -0.515625 C 4.101562 -0.0976562 3.523438 0.109375 2.765625 0.109375 C 2.015625 0.109375 1.4375 -0.0976562 1.03125 -0.515625 C 0.632812 -0.941406 0.4375 -1.554688 0.4375 -2.359375 Z M 0.4375 -7.453125 "/></g></g></g><g fill="#012c18" fill-opacity="1"><g transform="translate(302.60589, 236.581976)"><g><path d="M 1.96875 -2.25 C 1.96875 -1.894531 2.039062 -1.644531 2.1875 -1.5 C 2.332031 -1.351562 2.523438 -1.28125 2.765625 -1.28125 C 3.015625 -1.28125 3.207031 -1.351562 3.34375 -1.5 C 3.488281 -1.644531 3.5625 -1.894531 3.5625 -2.25 L 3.5625 -7.546875 C 3.5625 -7.898438 3.488281 -8.148438 3.34375 -8.296875 C 3.207031 -8.441406 3.015625 -8.515625 2.765625 -8.515625 C 2.523438 -8.515625 2.332031 -8.441406 2.1875 -8.296875 C 2.039062 -8.148438 1.96875 -7.898438 1.96875 -7.546875 Z M 0.4375 -7.453125 C 0.4375 -8.242188 0.632812 -8.847656 1.03125 -9.265625 C 1.4375 -9.691406 2.015625 -9.90625 2.765625 -9.90625 C 3.523438 -9.90625 4.101562 -9.691406 4.5 -9.265625 C 4.90625 -8.847656 5.109375 -8.242188 5.109375 -7.453125 L 5.109375 -2.359375 C 5.109375 -1.554688 4.90625 -0.941406 4.5 -0.515625 C 4.101562 -0.0976562 3.523438 0.109375 2.765625 0.109375 C 2.015625 0.109375 1.4375 -0.0976562 1.03125 -0.515625 C 0.632812 -0.941406 0.4375 -1.554688 0.4375 -2.359375 Z M 0.4375 -7.453125 "/></g></g></g><g fill="#012c18" fill-opacity="1"><g transform="translate(309.5468, 236.581976)"><g><path d="M 3.78125 0 C 3.757812 -0.0625 3.738281 -0.117188 3.71875 -0.171875 C 3.707031 -0.234375 3.691406 -0.304688 3.671875 -0.390625 C 3.660156 -0.472656 3.648438 -0.578125 3.640625 -0.703125 C 3.640625 -0.835938 3.640625 -1.003906 3.640625 -1.203125 L 3.640625 -2.75 C 3.640625 -3.207031 3.554688 -3.523438 3.390625 -3.703125 C 3.234375 -3.890625 2.976562 -3.984375 2.625 -3.984375 L 2.09375 -3.984375 L 2.09375 0 L 0.5625 0 L 0.5625 -9.796875 L 2.890625 -9.796875 C 3.691406 -9.796875 4.269531 -9.609375 4.625 -9.234375 C 4.988281 -8.867188 5.171875 -8.304688 5.171875 -7.546875 L 5.171875 -6.78125 C 5.171875 -5.769531 4.832031 -5.101562 4.15625 -4.78125 C 4.550781 -4.625 4.820312 -4.363281 4.96875 -4 C 5.113281 -3.644531 5.1875 -3.210938 5.1875 -2.703125 L 5.1875 -1.1875 C 5.1875 -0.945312 5.191406 -0.734375 5.203125 -0.546875 C 5.222656 -0.367188 5.269531 -0.1875 5.34375 0 Z M 2.09375 -8.40625 L 2.09375 -5.390625 L 2.703125 -5.390625 C 2.992188 -5.390625 3.21875 -5.460938 3.375 -5.609375 C 3.539062 -5.765625 3.625 -6.035156 3.625 -6.421875 L 3.625 -7.390625 C 3.625 -7.742188 3.5625 -8 3.4375 -8.15625 C 3.3125 -8.320312 3.113281 -8.40625 2.84375 -8.40625 Z M 2.09375 -8.40625 "/></g></g></g><g fill="#012c18" fill-opacity="1"><g transform="translate(316.571664, 236.581976)"><g><path d="M 0.359375 -7.453125 C 0.359375 -8.242188 0.546875 -8.847656 0.921875 -9.265625 C 1.304688 -9.691406 1.875 -9.90625 2.625 -9.90625 C 3.382812 -9.90625 3.953125 -9.691406 4.328125 -9.265625 C 4.710938 -8.847656 4.90625 -8.242188 4.90625 -7.453125 L 4.90625 -7.0625 L 3.4375 -7.0625 L 3.4375 -7.546875 C 3.4375 -7.898438 3.367188 -8.148438 3.234375 -8.296875 C 3.097656 -8.441406 2.910156 -8.515625 2.671875 -8.515625 C 2.429688 -8.515625 2.242188 -8.441406 2.109375 -8.296875 C 1.972656 -8.148438 1.90625 -7.898438 1.90625 -7.546875 C 1.90625 -7.210938 1.976562 -6.914062 2.125 -6.65625 C 2.28125 -6.394531 2.46875 -6.148438 2.6875 -5.921875 C 2.914062 -5.703125 3.15625 -5.476562 3.40625 -5.25 C 3.664062 -5.019531 3.90625 -4.769531 4.125 -4.5 C 4.351562 -4.226562 4.539062 -3.914062 4.6875 -3.5625 C 4.832031 -3.21875 4.90625 -2.816406 4.90625 -2.359375 C 4.90625 -1.554688 4.710938 -0.941406 4.328125 -0.515625 C 3.941406 -0.0976562 3.375 0.109375 2.625 0.109375 C 1.863281 0.109375 1.289062 -0.0976562 0.90625 -0.515625 C 0.519531 -0.941406 0.328125 -1.554688 0.328125 -2.359375 L 0.328125 -3.03125 L 1.78125 -3.03125 L 1.78125 -2.25 C 1.78125 -1.894531 1.851562 -1.644531 2 -1.5 C 2.144531 -1.363281 2.335938 -1.296875 2.578125 -1.296875 C 2.816406 -1.296875 3.007812 -1.363281 3.15625 -1.5 C 3.300781 -1.644531 3.375 -1.894531 3.375 -2.25 C 3.375 -2.59375 3.296875 -2.890625 3.140625 -3.140625 C 2.992188 -3.398438 2.804688 -3.644531 2.578125 -3.875 C 2.359375 -4.101562 2.117188 -4.332031 1.859375 -4.5625 C 1.609375 -4.789062 1.367188 -5.039062 1.140625 -5.3125 C 0.921875 -5.582031 0.734375 -5.890625 0.578125 -6.234375 C 0.429688 -6.578125 0.359375 -6.984375 0.359375 -7.453125 Z M 0.359375 -7.453125 "/></g></g></g></svg>